# xmcd CD database file
#
# Track frame offsets:
#	182
#	17607
#	48930
#	69762
#
# Disc length: 1186 seconds
#
# Revision: 2
# Processed by: cddbd v1.5.2PL0 Copyright (c) Steve Scherf et al.
# Submitted via: CDex 1.79
#
DISCID=2404a004
DTITLE=Kenny Wayne Shepherd - Aberdeen
DYEAR=1996
DGENRE=Blues-Rock
TTITLE0=Aberdeen (Radio Edit)
TTITLE1=Deja Voodoo (Live)
TTITLE2=Born With A Broken Heart (Live)
TTITLE3=Aberdeen (Album Version)
EXTD=YEAR: 1996
EXTT0=
EXTT1=
EXTT2=
EXTT3=
PLAYORDER=
